<svg width="101" height="74" viewBox="0 0 101 74" fill="none" xmlns="http://www.w3.org/2000/svg">
<g clip-path="url(#clip0_5723_93)">
<path d="M0 5C0 2.23858 2.23858 0 5 0H96C98.7614 0 101 2.23858 101 5V69C101 71.7614 98.7614 74 96 74H5C2.23857 74 0 71.7614 0 69V5Z" fill="#228B22"/>
<path d="M13.2665 21.296C17.1918 18.1387 22.3758 16.56 28.8185 16.56C35.2612 16.56 40.4238 18.16 44.3065 21.36C48.2318 24.5173 50.1945 28.976 50.1945 34.736V44.72C50.1945 50.5653 48.2532 55.024 44.3705 58.096C40.5305 61.1253 35.3465 62.64 28.8185 62.64C22.2905 62.64 17.0852 61.1253 13.2025 58.096C9.3625 55.024 7.4425 50.5653 7.4425 44.72V34.736C7.4425 28.9333 9.38383 24.4533 13.2665 21.296ZM25.3625 48.88C26.2158 49.7333 27.3678 50.16 28.8185 50.16C30.2692 50.16 31.4212 49.7333 32.2745 48.88C33.1278 48.0267 33.5545 46.7253 33.5545 44.976V34.224C33.5545 32.5173 33.1278 31.2373 32.2745 30.384C31.4212 29.488 30.2692 29.04 28.8185 29.04C27.3678 29.04 26.2158 29.488 25.3625 30.384C24.5092 31.2373 24.0825 32.5173 24.0825 34.224V44.976C24.0825 46.7253 24.5092 48.0267 25.3625 48.88ZM73.4785 48.88H91.2065C91.6758 48.88 92.0812 49.0507 92.4225 49.392C92.7638 49.7333 92.9345 50.1387 92.9345 50.608V60.272C92.9345 60.7413 92.7638 61.1467 92.4225 61.488C92.0812 61.8293 91.6758 62 91.2065 62H58.9505C58.4812 62 58.0758 61.8293 57.7345 61.488C57.3932 61.1467 57.2225 60.7413 57.2225 60.272V18.928C57.2225 18.4587 57.3932 18.0533 57.7345 17.712C58.0758 17.3707 58.4812 17.2 58.9505 17.2H71.7505C72.2198 17.2 72.6252 17.3707 72.9665 17.712C73.3078 18.0533 73.4785 18.4587 73.4785 18.928V48.88Z" fill="white"/>
</g>
<path d="M5 0.5H96C98.4853 0.5 100.5 2.51472 100.5 5V69C100.5 71.4853 98.4853 73.5 96 73.5H5C2.51472 73.5 0.5 71.4853 0.5 69V5C0.5 2.51472 2.51472 0.5 5 0.5Z" stroke="white" stroke-opacity="0.1"/>
<defs>
<clipPath id="clip0_5723_93">
<path d="M0 5C0 2.23858 2.23858 0 5 0H96C98.7614 0 101 2.23858 101 5V69C101 71.7614 98.7614 74 96 74H5C2.23857 74 0 71.7614 0 69V5Z" fill="white"/>
</clipPath>
</defs>
</svg>
