<svg xmlns="http://www.w3.org/2000/svg" width="200" height="38.166" viewBox="0 0 200 38.166">
  <g id="ta-logo-standard" transform="translate(-15.002 -10.001)">
    <g id="Group_5" data-name="Group 5" transform="translate(15.001 10.001)">
      <path id="Path_18" data-name="Path 18" d="M173.279,127.276q2.9,0,3.338-.673a2.77,2.77,0,0,0,.242-1.189,6.608,6.608,0,0,0-2.275-5.169,7.217,7.217,0,0,0-2.323-1.344,7.869,7.869,0,0,0-2.661-.465,9.332,9.332,0,0,0-4.33.983A9.97,9.97,0,0,0,162.054,122a11.335,11.335,0,0,0-1.983,3.67,13.523,13.523,0,0,0-.677,4.238,12.074,12.074,0,0,0,.677,4.11,10.228,10.228,0,0,0,1.885,3.282,8.391,8.391,0,0,0,2.924,2.171,9.245,9.245,0,0,0,3.847.775,9.1,9.1,0,0,0,2.3-.309,8.362,8.362,0,0,0,2.275-.983,8.881,8.881,0,0,0,2.031-1.755,9.324,9.324,0,0,0,1.572-2.636,1.053,1.053,0,0,0-.363-.647.715.715,0,0,0-.7-.181,4.706,4.706,0,0,1-2.007,2.015,6.016,6.016,0,0,1-2.637.569,6.758,6.758,0,0,1-2.951-.645,6.933,6.933,0,0,1-2.323-1.783,8.253,8.253,0,0,1-1.5-2.664,9.884,9.884,0,0,1-.532-3.282c0-.31.056-.5.169-.569a2.079,2.079,0,0,1,.845-.1Zm-8.318-2.068a.959.959,0,0,1-.556-.1.325.325,0,0,1-.121-.26,3.519,3.519,0,0,1,.29-1.163,5.6,5.6,0,0,1,2.346-2.74,3.978,3.978,0,0,1,2.1-.543,2.924,2.924,0,0,1,2.371.983,3.585,3.585,0,0,1,.822,2.378,1.269,1.269,0,0,1-.484,1.086,2.306,2.306,0,0,1-.774.26,9.041,9.041,0,0,1-1.6.1Zm-19.914-14.687v-1.809q0-.982.024-1.991t.049-1.965q.025-.956.073-1.731a.548.548,0,0,0-.677-.415q-1.5.621-3.217,1.345a29.926,29.926,0,0,1-3.119,1.137q-.242.1-.242.569a.684.684,0,0,0,.242.621l.677.465a3.48,3.48,0,0,1,.6.491,1.6,1.6,0,0,1,.339.7,5.884,5.884,0,0,1,.145,1.241q.024.775.024,2.068v22.176q0,1.447-.048,2.3a4.485,4.485,0,0,1-.242,1.345,1.317,1.317,0,0,1-.556.7,2.993,2.993,0,0,1-.992.311l-1.064.155a1.065,1.065,0,0,0-.218.8.765.765,0,0,0,.315.7q1.548-.1,2.806-.13t2.419-.027q2.564,0,5.128.156a.766.766,0,0,0,.315-.7,1.067,1.067,0,0,0-.218-.8l-.726-.1a2.989,2.989,0,0,1-.992-.31,1.32,1.32,0,0,1-.556-.724,4.746,4.746,0,0,1-.242-1.369q-.049-.853-.049-2.3v-6.93a18.373,18.373,0,0,1,.1-2.223,2.29,2.29,0,0,1,.483-1.189,4.974,4.974,0,0,1,1.258-1.008,3.9,3.9,0,0,1,2.032-.491,3.3,3.3,0,0,1,3,1.345,5.763,5.763,0,0,1,.871,3.2v7.289q0,1.447-.049,2.3a4.777,4.777,0,0,1-.242,1.369,1.322,1.322,0,0,1-.556.724,2.993,2.993,0,0,1-.992.31l-.726.1a1.063,1.063,0,0,0-.218.8.764.764,0,0,0,.315.7q2.515-.156,4.935-.156,1.354,0,2.636.027t2.83.13a.705.705,0,0,0,.411-.7.892.892,0,0,0-.315-.8l-1.113-.155a2.989,2.989,0,0,1-.991-.311,1.314,1.314,0,0,1-.556-.7,4.453,4.453,0,0,1-.242-1.345q-.049-.853-.049-2.3v-7.7a8.383,8.383,0,0,0-1.524-5.272,5.543,5.543,0,0,0-4.669-1.964,7.894,7.894,0,0,0-3.386.724,13.192,13.192,0,0,0-2.805,1.755q-.435,0-.435-.879Zm-26.7,21.607q0,2.068-.1,3.205a4.823,4.823,0,0,1-.39,1.706,1.332,1.332,0,0,1-.822.723,6.537,6.537,0,0,1-1.4.207l-1.656.26a.933.933,0,0,0-.218.775q.023.569.315.724c1.548-.069,2.543-.112,3.736-.13s2.322-.027,3.386-.027,2.161.009,3.29.027,2.4.06,3.822.13a.766.766,0,0,0,.314-.7,1.067,1.067,0,0,0-.218-.8l-1.742-.207a8.839,8.839,0,0,1-1.4-.26,1.33,1.33,0,0,1-.822-.723,4.8,4.8,0,0,1-.39-1.706q-.1-1.137-.1-3.205V109.795c0-.551.007-.975.024-1.267a1.69,1.69,0,0,1,.145-.671.524.524,0,0,1,.39-.284,4.146,4.146,0,0,1,.75-.052h2.76a19.345,19.345,0,0,1,3.145.207,4.252,4.252,0,0,1,1.935.775,3.269,3.269,0,0,1,1.064,1.551,15.3,15.3,0,0,1,.58,2.481,1.1,1.1,0,0,0,.822.207.845.845,0,0,0,.678-.362q-.049-.621-.024-1.68t.145-2.249q.121-1.189.266-2.352a16.807,16.807,0,0,1,.337-1.943q-.146-.26-.629-.26a1.43,1.43,0,0,0-.58.207,2.008,2.008,0,0,1-1.161,1.111,9.307,9.307,0,0,1-2.516.233H112.346q-1.259,0-2.033-.026a5.4,5.4,0,0,1-1.235-.155,1.113,1.113,0,0,1-.65-.414,2.072,2.072,0,0,1-.291-.75.552.552,0,0,0-.484-.207.61.61,0,0,0-.532.207q-.242,1.345-.75,3.54t-1.137,4.265a.845.845,0,0,0,.726.52.869.869,0,0,0,.822-.155,17.077,17.077,0,0,1,1.306-2.507,4.466,4.466,0,0,1,1.475-1.447,5.321,5.321,0,0,1,1.959-.646,20.881,20.881,0,0,1,2.805-.156h2.71q.919,0,1.113.337a5.417,5.417,0,0,1,.195,1.938Z" transform="translate(-105.235 -102.593)" fill="#000210"/>
      <g id="Group_4" data-name="Group 4" transform="translate(70.022 0.484)">
        <path id="Path_19" data-name="Path 19" d="M427.629,137.224l-.212.088a4.816,4.816,0,0,1-1.825.421c-.142,0-.359-.276-.508-1.054a29.159,29.159,0,0,1-.251-4.679V110.32q0-.945.024-1.915t.046-1.9c.014-.585.038-1.144.07-1.66l.005-.077-.027-.073a.883.883,0,0,0-.849-.65,1.067,1.067,0,0,0-.222.024l-.065.021q-1.4.6-3.082,1.3a30.283,30.283,0,0,1-3,1.087l-.039.014c-.207.088-.455.313-.455.883a.994.994,0,0,0,.39.9l.658.451a3.1,3.1,0,0,1,.52.422,1.235,1.235,0,0,1,.241.52,5.419,5.419,0,0,1,.13,1.12c.016.52.023,1.186.023,1.988v6.545a1.9,1.9,0,0,1-.03.39,8.52,8.52,0,0,0-.955-.195,11.217,11.217,0,0,0-1.644-.1,12.234,12.234,0,0,0-4.364.786,10.807,10.807,0,0,0-3.7,2.353,11.8,11.8,0,0,0-2.557,3.736,12.248,12.248,0,0,0-.966,4.968,11.218,11.218,0,0,0,.628,3.743,10.007,10.007,0,0,0,1.8,3.163,8.934,8.934,0,0,0,2.826,2.21,8.3,8.3,0,0,0,3.764.838,6.641,6.641,0,0,0,3.164-.742,16.756,16.756,0,0,0,2.145-1.354c.008.19.009.472-.008.89l-.1.829.024.075a1.1,1.1,0,0,0,.825.794l.13.029.117-.058a11.571,11.571,0,0,1,1.473-.58c.608-.2,1.244-.382,1.891-.543s1.317-.309,2.015-.446c.666-.13,1.3-.228,1.889-.3l.088-.01.073-.049a1.3,1.3,0,0,0,.513-1.215,1.554,1.554,0,0,0-.424-1.156Zm-13.791-14.557a3.669,3.669,0,0,1,1.981-.545,2.989,2.989,0,0,1,1.649.441,4.527,4.527,0,0,1,1.183,1.1,2.782,2.782,0,0,1,.435.97,6.025,6.025,0,0,1,.11,1.223v9.494c0,.818-.161,1.077-.248,1.17a2.688,2.688,0,0,1-.966.621,3.608,3.608,0,0,1-1.51.342,4.251,4.251,0,0,1-2.134-.552,5.423,5.423,0,0,1-1.731-1.618,8.412,8.412,0,0,1-1.186-2.587,12.639,12.639,0,0,1-.432-3.423,11.049,11.049,0,0,1,.363-2.854,7.883,7.883,0,0,1,.981-2.293,4.9,4.9,0,0,1,1.5-1.488Z" transform="translate(-375.49 -104.046)" fill="#e50026"/>
        <path id="Path_20" data-name="Path 20" d="M347.749,142.465l-.812-.173a7.659,7.659,0,0,1-1.36-.332,1.84,1.84,0,0,1-.766-.524,3.432,3.432,0,0,1-.585-1.061c-.186-.5-.42-1.165-.7-1.983l-6.737-20.939c-.369-1.117-.721-2.263-1.048-3.408s-.683-2.305-1.057-3.437l-.047-.094a1.277,1.277,0,0,0-1.092-.555c-.195,0-.32.124-.6.451-.175.2-.4.441-.7.723a6.519,6.519,0,0,1-.975.756,3.617,3.617,0,0,1-1.083.478l-.319.079.047.325a3.462,3.462,0,0,1-.153,1.4c-.17.589-.41,1.285-.715,2.076l-6.41,17.785q-.749,2.048-1.309,3.574c-.372,1.011-.7,1.855-.975,2.51a4.4,4.4,0,0,1-.932,1.564,2.66,2.66,0,0,1-1.365.516l-1.556.277-.086.13a1.64,1.64,0,0,0-.27,1.02,1.223,1.223,0,0,0,.383.91l.112.1.147-.009c1.617-.1,3.167-.149,4.6-.149.979.034,1.864.051,2.631.051.8,0,1.577.033,2.306.1l.108.01.095-.051a1.069,1.069,0,0,0,.5-.98,1.382,1.382,0,0,0-.307-1.04l-.082-.088-1.486-.273a6.042,6.042,0,0,1-.97-.211c-.17-.056-.212-.135-.233-.205a1.8,1.8,0,0,1,.033-.78,12.9,12.9,0,0,1,.48-1.679l1.921-6.009a6.366,6.366,0,0,1,.242-.731.775.775,0,0,1,.164-.269.312.312,0,0,1,.172-.06c.1-.01.3-.023.663-.023h6.219c.3,0,.545.008.742.024a.693.693,0,0,1,.318.088.707.707,0,0,1,.207.264,7.577,7.577,0,0,1,.3.721l2.195,6.786c.408,1.4.3,1.738.277,1.792-.013.027-.155.271-1.2.394l-1.155.168-.087.093a1.5,1.5,0,0,0,.195,1.993l.1.073.125-.005q1.213-.05,2.71-.1c.982-.034,1.985-.051,2.981-.051,1.214,0,2.3.008,3.22.026s1.875.057,2.834.123l.149.01.113-.1a1.222,1.222,0,0,0,.361-.975,1.3,1.3,0,0,0-.4-1.021Zm-13.608-13.309a2.837,2.837,0,0,1-.918.09h-4.864a3.155,3.155,0,0,1-.65-.047,4.791,4.791,0,0,1,.249-.922l1.96-5.834c.435-1.164.76-2.086.965-2.742.065-.2.118-.37.164-.509.038.108.079.234.124.381q.256.849.868,2.856L334,128.42a2.127,2.127,0,0,1,.14.737Z" transform="translate(-316.144 -107.998)" fill="#e50026"/>
        <path id="Path_21" data-name="Path 21" d="M674.784,149.726a2.829,2.829,0,0,0-2.159-.839,4.224,4.224,0,0,0-2.582.949q-1.07.816-2.08,1.612a.575.575,0,0,1-.026-.2q0-.344.023-.934c.016-.393.038-.827.069-1.289l0-.065-.019-.065a.97.97,0,0,0-1-.705H666.9l-.09.058a18.782,18.782,0,0,1-2.683,1.4c-1.1.48-2.156.907-3.136,1.266l-.107.039-.065.093a1.788,1.788,0,0,0-.056,1.554l.044.07.612.381a4.258,4.258,0,0,1,.623.526,1.092,1.092,0,0,1,.26.509,4.852,4.852,0,0,1,.107.883c.016.359.023.825.023,1.384v7.343c0,.919-.016,1.66-.045,2.2a4.005,4.005,0,0,1-.21,1.187.926.926,0,0,1-.38.492,2.575,2.575,0,0,1-.845.26L660,168l-.083.088a1.371,1.371,0,0,0-.308,1.04,1.067,1.067,0,0,0,.5.981l.089.047.1-.006c1.775-.1,3.4-.149,4.843-.149.873,0,1.767.008,2.659.026s2.054.057,3.449.124l.1,0,.088-.047a1.066,1.066,0,0,0,.5-.979,1.377,1.377,0,0,0-.307-1.04l-.092-.1-1.969-.216a2.159,2.159,0,0,1-.84-.209.876.876,0,0,1-.394-.486,3.983,3.983,0,0,1-.209-1.187c-.03-.534-.046-1.275-.046-2.2v-6.85a9.377,9.377,0,0,1,.263-2.612c.177-.552.483-.623.73-.623a3.217,3.217,0,0,1,.7.138,4.609,4.609,0,0,1,1.343.752,2.629,2.629,0,0,0,1.462.46,3.048,3.048,0,0,0,2.982-3.261,2.8,2.8,0,0,0-.769-1.973Z" transform="translate(-545.582 -133.534)" fill="#e50026"/>
        <path id="Path_22" data-name="Path 22" d="M580.108,160.785a7.7,7.7,0,0,0-1.743-1.469c-.63-.386-1.265-.751-1.894-1.087a10.257,10.257,0,0,1-2.169-1.447,2.1,2.1,0,0,1-.768-1.628,2.194,2.194,0,0,1,2.254-2.235,2.814,2.814,0,0,1,2.159,1.1,7.429,7.429,0,0,1,1.515,2.835l.024.082.059.065a1.055,1.055,0,0,0,1.04.26.993.993,0,0,0,.832-.645l.017-.11a12.909,12.909,0,0,0-.732-4.992l-.044-.112-.1-.06a8.611,8.611,0,0,0-1.787-.684,9.775,9.775,0,0,0-2.744-.365,9.078,9.078,0,0,0-2.85.443,6.919,6.919,0,0,0-2.343,1.293,6.1,6.1,0,0,0-1.566,2.071,6.454,6.454,0,0,0-.572,2.752,5.636,5.636,0,0,0,.455,2.3,6.843,6.843,0,0,0,1.185,1.82,9.059,9.059,0,0,0,1.656,1.43,14.877,14.877,0,0,0,1.855,1.069,9.9,9.9,0,0,1,2.12,1.518,2.682,2.682,0,0,1,.868,2.058,2.357,2.357,0,0,1-.661,1.788,2.192,2.192,0,0,1-1.595.65,3.111,3.111,0,0,1-1.55-.4,4.7,4.7,0,0,1-1.324-1.138,8.4,8.4,0,0,1-1.054-1.677,14.631,14.631,0,0,1-.775-1.974l-.025-.081-.057-.06a1.115,1.115,0,0,0-.849-.342h-.092a1.22,1.22,0,0,0-.92.464l-.069.089-.007.112a14.777,14.777,0,0,0,0,1.69c.029.546.069,1.1.118,1.637a11.4,11.4,0,0,0,.218,1.447,4.3,4.3,0,0,0,.362,1.066l.035.065.058.047a6.909,6.909,0,0,0,2.64,1.317,11.912,11.912,0,0,0,2.918.361,10.225,10.225,0,0,0,2.813-.39,7.515,7.515,0,0,0,2.432-1.182,6.151,6.151,0,0,0,1.739-2.043,6.269,6.269,0,0,0,.675-2.995,6.823,6.823,0,0,0-.5-2.719,7.638,7.638,0,0,0-1.257-1.989Z" transform="translate(-484.274 -134.942)" fill="#e50026"/>
        <path id="Path_23" data-name="Path 23" d="M490.153,154.017a1.274,1.274,0,0,0,.378-1.062,1.03,1.03,0,0,0-.563-.988l-.089-.041-.1.01c-1.012.1-2.148.148-3.379.148-.692,0-1.341-.008-1.931-.025s-1.26-.058-1.963-.124l-.088-.008-.082.032a1.04,1.04,0,0,0-.65.953,1.331,1.331,0,0,0,.33,1.081l.076.083,1.227.273a2.636,2.636,0,0,1,.615.216c.033.018.088.052.088.08a8.169,8.169,0,0,1-.63,2.117q-.936,2.4-1.777,4.6c-.45,1.174-.9,2.294-1.353,3.338-.13-.3-.281-.669-.449-1.094l-1.1-2.774c-.39-.982-.758-1.938-1.1-2.841s-.589-1.6-.754-2.088a4.094,4.094,0,0,1-.28-.871,3.669,3.669,0,0,1-.065-.56.348.348,0,0,1,.065-.027c.205-.062.478-.126.8-.19l.928-.165.07-.054a1.209,1.209,0,0,0,.446-1.079,1.018,1.018,0,0,0-.625-1l-.08-.032-.086.007c-.8.065-1.591.108-2.362.124s-1.669.025-2.751.025c-1.636,0-3.281-.05-4.888-.149l-.13-.008-.1.075a1.2,1.2,0,0,0-.455.979,1.341,1.341,0,0,0,.309,1.014l.076.082.992.223a2.7,2.7,0,0,1,1.4.764,8.55,8.55,0,0,1,1.2,2.118q.325.8.937,2.252t1.261,3.045q.655,1.6,1.286,3.124t1.014,2.423c.277.658.585,1.43.91,2.286s.614,1.645.863,2.34l.031.085.065.06a1.553,1.553,0,0,0,1.087.394,1.389,1.389,0,0,0,1.061-.414l.055-.059.025-.077c.278-.858.622-1.827,1.022-2.881s.8-2.048,1.164-2.935l3.691-8.687c.364-.812.689-1.474.967-1.969a6.637,6.637,0,0,1,.751-1.111,1.862,1.862,0,0,1,.662-.5,4.527,4.527,0,0,1,.871-.255l1.029-.22Z" transform="translate(-417.155 -136.032)" fill="#e50026"/>
        <path id="Path_24" data-name="Path 24" d="M628.22,166.294l-.013-.1a1.37,1.37,0,0,0-.467-.845,1.054,1.054,0,0,0-1.016-.256l-.147.04-.075.13a4.215,4.215,0,0,1-1.782,1.8,5.469,5.469,0,0,1-2.391.515,6.205,6.205,0,0,1-2.7-.589,6.364,6.364,0,0,1-2.124-1.631,7.64,7.64,0,0,1-1.384-2.458,9.236,9.236,0,0,1-.495-3.054,1.04,1.04,0,0,1,.022-.246,2.968,2.968,0,0,1,.6-.04h8.089c2.079,0,3.167-.251,3.532-.816l.024-.044a3.054,3.054,0,0,0,.268-1.3,6.748,6.748,0,0,0-2.324-5.27,7.361,7.361,0,0,0-2.36-1.365,7.988,7.988,0,0,0-2.694-.471,9.423,9.423,0,0,0-4.354.99,10.052,10.052,0,0,0-3.225,2.592,11.344,11.344,0,0,0-1.981,3.664,13.488,13.488,0,0,0-.673,4.21,12.094,12.094,0,0,0,.676,4.094,10.3,10.3,0,0,0,1.891,3.288,8.488,8.488,0,0,0,2.954,2.192,9.338,9.338,0,0,0,3.867.78,9.177,9.177,0,0,0,2.314-.311,8.466,8.466,0,0,0,2.3-.992,8.984,8.984,0,0,0,2.046-1.77,9.386,9.386,0,0,0,1.582-2.65Zm-9.838-12.9a3.5,3.5,0,0,1,1.845-.472,2.457,2.457,0,0,1,2.014.819,3.081,3.081,0,0,1,.711,2.065.863.863,0,0,1-.3.744,1.864,1.864,0,0,1-.62.2,8.5,8.5,0,0,1-1.474.093H616.3a1.494,1.494,0,0,1-.29-.021,3.2,3.2,0,0,1,.255-.957,5.093,5.093,0,0,1,.787-1.328A5.026,5.026,0,0,1,618.382,153.391Z" transform="translate(-512.815 -134.941)" fill="#e50026"/>
        <path id="Path_25" data-name="Path 25" d="M545.635,167.951l-.966-.173a2.54,2.54,0,0,1-.838-.26.921.921,0,0,1-.378-.491,3.963,3.963,0,0,1-.21-1.187c-.03-.538-.047-1.279-.047-2.2v-8.643q0-1.547.024-3.193c.015-1.092.054-2.059.116-2.876l.009-.119-.065-.1a1.318,1.318,0,0,0-.886-.561l-.15-.033-.13.084a19.708,19.708,0,0,1-2.57,1.372,26.779,26.779,0,0,1-3.414,1.281l-.121.036-.072.1a1.377,1.377,0,0,0-.206.808,1.4,1.4,0,0,0,.149.742l.044.071.614.381a4.26,4.26,0,0,1,.623.526,1.09,1.09,0,0,1,.26.51,4.913,4.913,0,0,1,.108.883c.015.368.023.834.023,1.384v7.343c0,.914-.016,1.656-.046,2.2a4.009,4.009,0,0,1-.209,1.187.917.917,0,0,1-.38.492,2.571,2.571,0,0,1-.845.26l-.96.172-.083.088a1.379,1.379,0,0,0-.309,1.04,1.068,1.068,0,0,0,.5.979l.09.047.1-.006c1.775-.1,3.42-.149,4.89-.149.871,0,1.718.008,2.517.026s1.64.057,2.505.123l.105.008.094-.049a1.069,1.069,0,0,0,.5-.98,1.38,1.38,0,0,0-.308-1.04Z" transform="translate(-462.159 -133.485)" fill="#e50026"/>
        <path id="Path_26" data-name="Path 26" d="M542.944,116.469a3.537,3.537,0,1,0-2.688-1.05,3.6,3.6,0,0,0,2.688,1.05Z" transform="translate(-465.175 -107.509)" fill="#e50026"/>
      </g>
    </g>
  </g>
</svg>
