<svg xmlns="http://www.w3.org/2000/svg" width="17.917" height="17.269" viewBox="0 0 17.917 17.269">
  <g id="noun-bathroom-1440295" transform="translate(0.125 0.144)">
    <path id="Path_2049" data-name="Path 2049" d="M143.108,75.123a.44.44,0,0,0-.441-.441H129.6V68.911a1.454,1.454,0,0,1,2.886,0v.969h.881v-.969a2.335,2.335,0,0,0-4.648,0v5.772h-2.842a.44.44,0,0,0-.441.441v1.322a5.287,5.287,0,0,0,4.846,5.265,2.533,2.533,0,0,0,2.489,2.093h3a2.533,2.533,0,0,0,2.489-2.093,5.287,5.287,0,0,0,4.846-5.265Zm-7.336,7.8h-3a1.652,1.652,0,0,1-1.586-1.19h6.168a1.652,1.652,0,0,1-1.586,1.19Zm6.454-6.477a4.406,4.406,0,0,1-4.406,4.406h-7.093a4.406,4.406,0,0,1-4.406-4.406v-.881h15.9Z" transform="translate(-125.441 -66.802)" fill="#f38c11" stroke="#f38c11" stroke-width="0.25"/>
  </g>
</svg>
