<svg xmlns="http://www.w3.org/2000/svg" width="16.969" height="11.055" viewBox="0 0 16.969 11.055">
  <path id="noun-bed-3267273" d="M105.994,121.46a1.315,1.315,0,0,0-1.312,1.312v9.2a.3.3,0,0,0,.3.3h2.03a.3.3,0,0,0,.3-.3v-1.479h11.47v1.479a.3.3,0,0,0,.3.3H121.1a.3.3,0,0,0,.3-.3v-6.326a1.313,1.313,0,1,0-2.626,0V127H111.4v-.019a2.033,2.033,0,0,0-2.031-2.03h-2.066v-2.179a1.316,1.316,0,0,0-1.312-1.312Zm0,.595a.709.709,0,0,1,.716.717v8.9h-1.431v-8.9A.709.709,0,0,1,105.994,122.055Zm14.094,2.87a.711.711,0,0,1,.717.718v6.026h-1.433v-6.026A.71.71,0,0,1,120.087,124.924Zm-12.78.623h2.064a1.425,1.425,0,0,1,1.434,1.434V127h-3.5Zm0,2.05h11.469v2.3h-11.47Z" transform="translate(-104.557 -121.335)" fill="#f38c11" stroke="#f38c11" stroke-width="0.25"/>
</svg>
