<svg id="noun-broker-3978225" xmlns="http://www.w3.org/2000/svg" width="33.997" height="36.341" viewBox="0 0 33.997 36.341">
  <path id="Path_31" data-name="Path 31" d="M236.25,183.75h1.172v2.345H236.25Z" transform="translate(-226.871 -172.027)" fill="#ff8a23"/>
  <path id="Path_32" data-name="Path 32" d="M323.75,183.75h1.172v2.345H323.75Z" transform="translate(-308.51 -172.027)" fill="#ff8a23"/>
  <path id="Path_33" data-name="Path 33" d="M250.862,245h-1.172a1.758,1.758,0,1,1-3.517,0H245a2.931,2.931,0,0,0,5.862,0Z" transform="translate(-235.035 -229.174)" fill="#ff8a23"/>
  <path id="Path_34" data-name="Path 34" d="M129.66,28.679H128.9a5.75,5.75,0,0,1-5.17-3.195.586.586,0,0,0-1.044,0,5.75,5.75,0,0,1-5.17,3.195h-.756a.586.586,0,0,0-.586.586v1.624L112.661,30v-1a7.619,7.619,0,0,0,3.728-4.431h.375a2.345,2.345,0,0,0,.346-4.654l.715-1.43h0a6.657,6.657,0,0,0,.7-2.96v-.158A6.629,6.629,0,0,0,111.9,8.75h-5.51a6.618,6.618,0,0,0-6.624,6.624v.158a6.656,6.656,0,0,0,.7,2.96l.715,1.43h0a2.345,2.345,0,0,0,.346,4.654h.375a7.62,7.62,0,0,0,3.728,4.408v1l-5.381,1.348a5.275,5.275,0,0,0-4,5.117v8.059a.586.586,0,0,0,.586.586h24.618a.586.586,0,0,0,.586-.586V42.061c.276.205.586.4.856.586a.586.586,0,0,0,.633,0,14.444,14.444,0,0,0,6.717-12.209V29.265a.586.586,0,0,0-.586-.586ZM106,31.094l2.222,2.667L105.95,34.9l-1.3-3.464Zm2.479,6.377h1.336l.991,6.448h-3.317Zm1.419-1.172h-1.5l-.375-1.125,1.125-.586,1.125.586Zm.176-2.538,2.222-2.667,1.348.34-1.3,3.464Zm7.867-11.529a1.172,1.172,0,0,1-1.172,1.172h-.1a7.716,7.716,0,0,0,.1-1.172V21.059a1.172,1.172,0,0,1,1.172,1.172Zm-17-6.858a5.452,5.452,0,0,1,5.451-5.451h5.51a5.452,5.452,0,0,1,5.451,5.451v.158a5.518,5.518,0,0,1-.586,2.438l-.176.346a.586.586,0,0,0-.41-.188,3.734,3.734,0,0,1-3.476-2.345l-.082-.211a.586.586,0,0,0-1.09,0l-.082.211a3.734,3.734,0,0,1-3.476,2.345h-5.862a.586.586,0,0,0-.422.188l-.176-.346a5.523,5.523,0,0,1-.586-2.438Zm.586,8.031a1.172,1.172,0,1,1,0-2.345v1.172a7.714,7.714,0,0,0,.1,1.172Zm1.172-1.172V19.3h5.275a4.888,4.888,0,0,0,4.1-2.2,4.883,4.883,0,0,0,3.517,2.169v2.966a6.448,6.448,0,0,1-12.9,0Zm6.448,7.62a7.55,7.55,0,0,0,2.345-.375v.75l-2.345,2.814L106.8,30.227v-.75A7.551,7.551,0,0,0,109.144,29.852ZM97.421,36.446a4.1,4.1,0,0,1,3.107-3.98l2.978-.744,1.571,4.2h0a.585.585,0,0,0,.815.317l1.067-.522.428,1.225-1.09,6.981h-4.771V38.644h-1.172v5.275H97.421Zm23.446,7.473h-2.931V38.644h-1.172v5.275h-4.771l-1.09-6.981.428-1.225,1.067.533a.6.6,0,0,0,.815-.328l1.571-4.2,1.495.369a14.4,14.4,0,0,0,4.59,9Zm8.206-13.482a13.27,13.27,0,0,1-5.862,11.02,13.27,13.27,0,0,1-5.862-11.02v-.586h.17a6.911,6.911,0,0,0,5.691-2.931,6.911,6.911,0,0,0,5.691,2.931h.17Z" transform="translate(-96.249 -8.75)" fill="#ff8a23"/>
  <path id="Path_35" data-name="Path 35" d="M441.6,323.75a4.1,4.1,0,1,0,2.9,1.2A4.1,4.1,0,0,0,441.6,323.75Zm0,7.034a2.93,2.93,0,1,1,2.073-.858A2.932,2.932,0,0,1,441.6,330.784Z" transform="translate(-414.64 -302.648)" fill="#ff8a23"/>
  <path id="Path_36" data-name="Path 36" d="M474.845,358.75h-1.172v1.172H472.5v1.172h1.172v1.172h1.172v-1.172h1.172v-1.172h-1.172Z" transform="translate(-447.295 -335.304)" fill="#ff8a23"/>
</svg>
