<svg xmlns="http://www.w3.org/2000/svg" xmlns:xlink="http://www.w3.org/1999/xlink" width="141" height="56" viewBox="0 0 141 56">
  <defs>
    <filter id="Rectangle_196" x="0" y="0" width="141" height="56" filterUnits="userSpaceOnUse">
      <feOffset dx="3" dy="3" input="SourceAlpha"/>
      <feGaussianBlur stdDeviation="3" result="blur"/>
      <feFlood flood-opacity="0.161"/>
      <feComposite operator="in" in2="blur"/>
      <feComposite in="SourceGraphic"/>
    </filter>
    <clipPath id="clip-path">
      <rect id="Rectangle_190" data-name="Rectangle 190" width="117" height="38" transform="translate(0.049 -0.497)" fill="none" stroke="#707070" stroke-width="1"/>
    </clipPath>
  </defs>
  <g id="Group_548" data-name="Group 548" transform="translate(5.951 6.497)">
    <g transform="matrix(1, 0, 0, 1, -5.95, -6.5)" filter="url(#Rectangle_196)">
      <rect id="Rectangle_196-2" data-name="Rectangle 196" width="123" height="38" transform="translate(6 6)" fill="#fff"/>
    </g>
    <g id="Mask_Group_13" data-name="Mask Group 13" transform="translate(0 0)" clip-path="url(#clip-path)">
      <g id="news-be-on-it" transform="translate(3.113 7.396)">
        <path id="Path_2456" data-name="Path 2456" d="M110.158,22.075c3.22,0,4.758,2.438,4.758,5.377v.471h-6.771a2.064,2.064,0,0,0,2.1,2.051,1.875,1.875,0,0,0,1.82-1.025l2.744.194a4.591,4.591,0,0,1-4.648,3.049c-3.052,0-4.872-2.134-4.872-5.044A4.744,4.744,0,0,1,110.158,22.075Zm21.729,0c2.128,0,4.116.915,4.228,3.243l-2.576.139a1.506,1.506,0,0,0-1.708-1.386c-.532,0-1.344.083-1.344.8,0,1.469,5.88.305,5.88,4.1,0,2.467-2.24,3.215-4.368,3.215-2.044,0-4.48-.915-4.48-3.437v-.112l2.6-.083c.168,1.249.812,1.58,2.044,1.58.588,0,1.372-.139,1.372-.887,0-1.718-5.74-.332-5.74-4.157.058-2.245,2.13-3.021,4.09-3.021Zm-30.268.055a3.236,3.236,0,0,1,2.016.638,3.717,3.717,0,0,1,1.288,3.271v5.876h-2.8V26.288c0-.915-.364-1.829-1.427-1.829-1.316,0-1.652,1.137-1.652,2.162v5.293H96.3V22.352h2.688v1.109a3.137,3.137,0,0,1,2.632-1.33Zm15.32.222,1.487,5.987,1.487-5.987h2.408l1.512,5.959,1.487-5.987h2.8l-2.8,9.562H122.76l-1.652-6.43-1.6,6.458h-2.574l-2.8-9.562Zm-6.721,1.857a1.935,1.935,0,0,0-2.072,1.635h3.866a1.734,1.734,0,0,0-1.792-1.635Z" transform="translate(-69.336 -16.012)" fill-rule="evenodd"/>
        <path id="Path_2457" data-name="Path 2457" d="M246.656,31.9a2.887,2.887,0,0,1,3.108,2.606l-1.9.083a1.156,1.156,0,0,0-1.232-1.081c-1.12,0-1.487,1.025-1.487,1.968s.28,2.051,1.427,2.051a1.294,1.294,0,0,0,1.344-1.189l1.932.083a3.1,3.1,0,0,1-3.3,2.772c-2.24,0-3.444-1.5-3.444-3.628a3.356,3.356,0,0,1,3.556-3.658Zm7.14,0a3.392,3.392,0,0,1,3.5,3.628,3.547,3.547,0,0,1-3.7,3.687,3.391,3.391,0,0,1-3.556-3.628A3.505,3.505,0,0,1,253.8,31.9Zm20.328,0c1.9,0,3.164.554,3.164,2.606V37.5a3.142,3.142,0,0,0,.224,1.469l.028.055h-2.1l-.084-.638a3.4,3.4,0,0,1-2.184.833,2.225,2.225,0,0,1-2.438-2.245c0-1.5,1.176-2.022,2.492-2.217l.952-.139c.588-.083,1.092-.139,1.092-.582,0-.582-.756-.638-1.064-.638-.728,0-1.232.277-1.232.859h-1.848c.112-2.245,2.24-2.384,2.94-2.384Zm5.376.194v3.963c0,.748.14,1.5,1.092,1.5.98,0,1.2-.8,1.2-1.857V32.1h1.9v6.93h-1.876v-.749a2.36,2.36,0,0,1-1.963.942c-2.156,0-2.324-1.718-2.324-3.021V32.1Zm-36.484,4.936v1.994H241v-2h2.016Zm18.424-5.1a1.853,1.853,0,0,1,1.848,1.189,2.368,2.368,0,0,1,2.1-1.164,2.638,2.638,0,0,1,1.568.5,2.363,2.363,0,0,1,.756,2.082v4.487h-1.988V35.146c-.028-.693-.168-1.414-1.008-1.414-.9,0-1.064.665-1.064,1.33v3.965h-1.988V35.118c0-.582-.14-1.386-1.036-1.386-1.008,0-1.12.942-1.12,1.606v3.687h-1.963V32.1h1.963v.915a2.011,2.011,0,0,1,1.932-1.081Zm8.792,5.1v1.994h-2.016v-2Zm5.1-1.33c-.2.055-.308.111-.476.167-.56.139-2.072.167-2.072,1.053,0,.582.532.748.924.748h.028a1.942,1.942,0,0,0,1.624-.887V35.7Zm-21.644-2.217c-1.2,0-1.6,1.025-1.6,2.051,0,1,.364,2.107,1.568,2.107,1.232,0,1.568-1.137,1.568-2.162.029-1-.366-2-1.539-2Z" transform="translate(-173.519 -23.097)" fill="#a1a6a9" fill-rule="evenodd"/>
        <path id="Path_2458" data-name="Path 2458" d="M336.632,63.13v.638h-.7v1.746a.476.476,0,0,0,.084.332.49.49,0,0,0,.336.083h.168a.254.254,0,0,0,.14-.028v.748c-.084,0-.168.028-.28.028h-.28a2.142,2.142,0,0,1-.42-.028,1.4,1.4,0,0,1-.364-.111.546.546,0,0,1-.252-.249.917.917,0,0,1-.084-.416V63.792h-.588v-.635h.589V62.105h.98v1.053a5.228,5.228,0,0,1,.672-.028Zm-2.492,3.52h-.98V63.13h.98Zm-.952-4.85h.98v.8h-.981Zm-4.648,1.33v.5h.028a1.045,1.045,0,0,1,.476-.444,1.518,1.518,0,0,1,.588-.139,1.487,1.487,0,0,1,.644.111.878.878,0,0,1,.392.305,1.268,1.268,0,0,1,.2.444,3.777,3.777,0,0,1,.056.61v2.161h-.952V64.683a1.269,1.269,0,0,0-.14-.638.528.528,0,0,0-.476-.222.7.7,0,0,0-.56.222,1.391,1.391,0,0,0-.168.773v1.859h-.98V63.13Zm-4.732,1a1.58,1.58,0,0,1,.364-.582,2.524,2.524,0,0,1,.56-.388,2.132,2.132,0,0,1,1.512,0,1.669,1.669,0,0,1,.588.388,1.581,1.581,0,0,1,.364.582,2.139,2.139,0,0,1,.14.773,2.257,2.257,0,0,1-.14.773,1.581,1.581,0,0,1-.364.582,1.6,1.6,0,0,1-.588.36,2.132,2.132,0,0,1-1.512,0,1.62,1.62,0,0,1-.56-.36,1.58,1.58,0,0,1-.364-.582,2.221,2.221,0,0,1,0-1.552m.9,1.189a1.383,1.383,0,0,0,.14.36.546.546,0,0,0,.252.249,1.1,1.1,0,0,0,.84,0,.546.546,0,0,0,.252-.249,1.383,1.383,0,0,0,.14-.36,3.1,3.1,0,0,0,0-.833,1.387,1.387,0,0,0-.14-.36.719.719,0,0,0-.252-.249.935.935,0,0,0-.42-.111.68.68,0,0,0-.42.111.546.546,0,0,0-.252.249,1.385,1.385,0,0,0-.14.36,2.079,2.079,0,0,0-.028.416,1.047,1.047,0,0,0,.028.416m-5.293.5a.877.877,0,0,0,.616.222.974.974,0,0,0,.5-.139.61.61,0,0,0,.252-.305h.84a1.725,1.725,0,0,1-.616.915,1.751,1.751,0,0,1-1.036.277,2.158,2.158,0,0,1-.756-.139,1.353,1.353,0,0,1-.56-.388,1.58,1.58,0,0,1-.364-.582,2.1,2.1,0,0,1-.112-.748,2.353,2.353,0,0,1,.14-.748,1.58,1.58,0,0,1,.364-.582,1.563,1.563,0,0,1,.56-.388,2.123,2.123,0,0,1,.728-.139,1.72,1.72,0,0,1,.784.167,1.687,1.687,0,0,1,.868,1.137,2.37,2.37,0,0,1,.056.773h-2.548a1.335,1.335,0,0,0,.28.665m1.12-1.857a.627.627,0,0,0-.532-.194.821.821,0,0,0-.392.083.609.609,0,0,0-.252.194,1.125,1.125,0,0,0-.14.249c-.028.083-.028.167-.056.222h1.568a.778.778,0,0,0-.2-.554M315.38,61.8v1.774a.931.931,0,0,1,.476-.388,1.676,1.676,0,0,1,.644-.139,1.224,1.224,0,0,1,.532.111,1.84,1.84,0,0,1,.476.332,1.459,1.459,0,0,1,.336.582,2.538,2.538,0,0,1,0,1.665,1.989,1.989,0,0,1-.336.582,1.838,1.838,0,0,1-.476.332,1.146,1.146,0,0,1-.532.111,1.855,1.855,0,0,1-.7-.111.985.985,0,0,1-.476-.416v.441H314.4V61.8Zm1.568,2.661a1.385,1.385,0,0,0-.14-.36.547.547,0,0,0-.252-.249.838.838,0,0,0-.728,0,.547.547,0,0,0-.252.249,1.386,1.386,0,0,0-.14.36,1.57,1.57,0,0,0,0,.833,1.386,1.386,0,0,0,.14.36.719.719,0,0,0,.252.249.782.782,0,0,0,.364.083.706.706,0,0,0,.364-.083.547.547,0,0,0,.252-.249,1.385,1.385,0,0,0,.14-.36,2.118,2.118,0,0,0,.056-.416,1.066,1.066,0,0,0-.056-.416" transform="translate(-226.367 -44.727)"/>
        <g id="Group_543" data-name="Group 543" transform="translate(0 0)">
          <path id="Path_2459" data-name="Path 2459" d="M33.26.2h2.77a.559.559,0,0,1,.56.554V3.5a.559.559,0,0,1-.56.554H33.26A.559.559,0,0,1,32.7,3.5V.754A.559.559,0,0,1,33.26.2Z" transform="translate(-23.544 -0.2)" fill="#c90000" fill-rule="evenodd"/>
          <path id="Path_2460" data-name="Path 2460" d="M33.26,65.7h2.77a.559.559,0,0,1,.56.554V69a.559.559,0,0,1-.56.554H33.26A.559.559,0,0,1,32.7,69V66.253a.559.559,0,0,1,.56-.554Z" transform="translate(-23.544 -47.546)" fill="#00838d" fill-rule="evenodd"/>
          <path id="Path_2461" data-name="Path 2461" d="M.56,33h2.77a.559.559,0,0,1,.56.554V36.3a.559.559,0,0,1-.56.554H.56A.559.559,0,0,1,0,36.3V33.554A.559.559,0,0,1,.56,33Z" transform="translate(0 -23.909)" fill="#7c28b6" fill-rule="evenodd"/>
          <path id="Path_2462" data-name="Path 2462" d="M66.06,33h2.77a.559.559,0,0,1,.56.554V36.3a.559.559,0,0,1-.56.554H66.06a.559.559,0,0,1-.56-.554V33.554A.559.559,0,0,1,66.06,33Z" transform="translate(-47.16 -23.909)" fill="#81888c" fill-rule="evenodd"/>
          <g id="Group_542" data-name="Group 542" transform="translate(2.095 2.095)">
            <path id="Path_2463" data-name="Path 2463" d="M56.806,7.927l1.963,1.94a.551.551,0,0,1,0,.784l-1.963,1.94a.566.566,0,0,1-.792,0l-1.963-1.94a.552.552,0,0,1,0-.784l1.963-1.94A.566.566,0,0,1,56.806,7.927Z" transform="translate(-40.896 -7.763)" fill="#f46a00" fill-rule="evenodd"/>
            <path id="Path_2464" data-name="Path 2464" d="M10.489,54.241l1.963,1.94a.553.553,0,0,1,0,.784l-1.963,1.94a.566.566,0,0,1-.792,0l-1.963-1.94a.552.552,0,0,1,0-.784L9.7,54.241A.566.566,0,0,1,10.489,54.241Z" transform="translate(-7.547 -41.241)" fill="#1691db" fill-rule="evenodd"/>
            <path id="Path_2465" data-name="Path 2465" d="M10.417,7.926l1.958,1.941a.552.552,0,0,1,0,.784l-1.963,1.94a.566.566,0,0,1-.792,0L7.658,10.65a.552.552,0,0,1,0-.784L9.62,7.926a.566.566,0,0,1,.8,0Z" transform="translate(-7.494 -7.762)" fill="#d51387" fill-rule="evenodd"/>
            <path id="Path_2466" data-name="Path 2466" d="M56.734,54.241l1.963,1.94a.553.553,0,0,1,0,.784l-1.963,1.94a.566.566,0,0,1-.792,0l-1.963-1.94a.552.552,0,0,1,0-.784l1.963-1.94A.566.566,0,0,1,56.734,54.241Z" transform="translate(-40.844 -41.241)" fill="#4aa90f" fill-rule="evenodd"/>
          </g>
        </g>
      </g>
    </g>
  </g>
</svg>
