<svg xmlns="http://www.w3.org/2000/svg" width="16.801" height="16.801" viewBox="0 0 16.801 16.801">
  <g id="noun-house-size-4591045" transform="translate(0.125 0.125)">
    <path id="Path_2084" data-name="Path 2084" d="M86.292,14.482H85V.517h.259a.259.259,0,0,0,0-.517H84.223a.259.259,0,0,0,0,.517h.259V14.482H70.517v-.259a.259.259,0,1,0-.517,0v1.034a.259.259,0,1,0,.517,0V15H86.292a.259.259,0,0,0,0-.517Z" transform="translate(-70 0)" fill="#f38c11" stroke="#f38c11" stroke-width="0.25"/>
    <path id="Path_2085" data-name="Path 2085" d="M131.659,30.854l5.537-4.027,4.4,3.2v8.637h-5.431V36.076h2.069v1.81a.259.259,0,0,0,.517,0V35.817a.259.259,0,0,0-.259-.259H135.9a.259.259,0,0,0-.259.259v2.845H132.8v-7.5a.259.259,0,1,0-.517,0V38.92a.259.259,0,0,0,.259.259h9.31a.259.259,0,0,0,.259-.259V30.4l.624.454a.259.259,0,0,0,.3-.418L137.348,26.3a.259.259,0,0,0-.3,0l-5.689,4.138a.259.259,0,1,0,.3.418Z" transform="translate(-129.438 -25.473)" fill="#f38c11" stroke="#f38c11" stroke-width="0.25"/>
    <path id="Path_2086" data-name="Path 2086" d="M221.077,186.336a.259.259,0,0,0,.259-.259v-2.069a.259.259,0,0,0-.259-.259h-2.069a.259.259,0,0,0-.259.259v2.069a.259.259,0,0,0,.259.259Zm-1.81-2.069h1.552v1.552h-1.552Z" transform="translate(-214.354 -178.319)" fill="#f38c11" stroke="#f38c11" stroke-width="0.25"/>
    <path id="Path_2087" data-name="Path 2087" d="M361.077,186.336a.258.258,0,0,0,.259-.259v-2.069a.258.258,0,0,0-.259-.259h-2.069a.259.259,0,0,0-.259.259v2.069a.259.259,0,0,0,.259.259Zm-1.81-2.069h1.552v1.552h-1.552Z" transform="translate(-350.216 -178.319)" fill="#f38c11" stroke="#f38c11" stroke-width="0.25"/>
    <path id="Path_2088" data-name="Path 2088" d="M560.259,525a.259.259,0,0,0-.259.259v.517a.259.259,0,1,0,.517,0v-.517a.259.259,0,0,0-.259-.259Z" transform="translate(-545.518 -509.484)" fill="#f38c11" stroke="#f38c11" stroke-width="0.25"/>
  </g>
</svg>
