<svg width="94" height="33" viewBox="0 0 94 33" fill="none" xmlns="http://www.w3.org/2000/svg">
<g clip-path="url(#clip0_5723_89)">
<path d="M0 5C0 2.23858 2.23858 0 5 0H89C91.7614 0 94 2.23858 94 5V28C94 30.7614 91.7614 33 89 33H5C2.23858 33 0 30.7614 0 28V5Z" fill="#228B22"/>
<path d="M14.216 28H7.772C7.508 28 7.28 27.904 7.088 27.712C6.896 27.52 6.8 27.292 6.8 27.028V3.412C6.8 3.148 6.896 2.92 7.088 2.728C7.28 2.536 7.508 2.44 7.772 2.44H14.216C14.48 2.44 14.708 2.536 14.9 2.728C15.092 2.92 15.188 3.148 15.188 3.412V27.028C15.188 27.292 15.092 27.52 14.9 27.712C14.708 27.904 14.48 28 14.216 28ZM18.2483 22.636C18.2483 19.396 20.8763 17.32 26.1323 16.408L29.9483 15.796C29.9483 15.076 29.8883 14.596 29.7683 14.356C29.6483 14.092 29.3603 13.96 28.9043 13.96C28.4723 13.96 28.0403 14.152 27.6083 14.536C27.1763 14.92 26.7683 15.112 26.3843 15.112H20.2643C19.7363 15.112 19.4723 14.86 19.4723 14.356C19.4723 13.828 19.6523 13.276 20.0123 12.7C20.3963 12.1 20.9363 11.512 21.6323 10.936C22.3523 10.36 23.3483 9.88 24.6203 9.496C25.9163 9.112 27.3563 8.92 28.9403 8.92C32.1563 8.92 34.5683 9.592 36.1763 10.936C37.7843 12.28 38.5883 14.2 38.5883 16.696V27.028C38.5883 27.292 38.4923 27.52 38.3003 27.712C38.1083 27.904 37.8803 28 37.6163 28H31.3163C31.0523 28 30.8243 27.904 30.6323 27.712C30.4403 27.52 30.3443 27.292 30.3443 27.028V26.02C29.2163 27.58 27.5723 28.36 25.4123 28.36C23.2523 28.36 21.5123 27.82 20.1923 26.74C18.8963 25.636 18.2483 24.268 18.2483 22.636ZM27.7163 23.032C29.2763 23.032 30.0563 22.096 30.0563 20.224L27.9323 20.692C26.8763 20.932 26.3483 21.376 26.3483 22.024C26.3483 22.312 26.4683 22.552 26.7083 22.744C26.9483 22.936 27.2843 23.032 27.7163 23.032ZM63.1954 17.092V27.028C63.1954 27.292 63.0994 27.52 62.9074 27.712C62.7154 27.904 62.4874 28 62.2234 28H55.3474C55.0834 28 54.8554 27.904 54.6634 27.712C54.4714 27.52 54.3754 27.292 54.3754 27.028V17.344C54.3754 16.024 53.7754 15.364 52.5754 15.364C51.3754 15.364 50.7754 16.024 50.7754 17.344V27.028C50.7754 27.292 50.6794 27.52 50.4874 27.712C50.2954 27.904 50.0674 28 49.8034 28H42.9634C42.6994 28 42.4714 27.904 42.2794 27.712C42.0874 27.52 41.9914 27.292 41.9914 27.028V10.252C41.9914 9.988 42.0874 9.76 42.2794 9.568C42.4714 9.376 42.6994 9.28 42.9634 9.28H49.2634C49.5274 9.28 49.7554 9.376 49.9474 9.568C50.1394 9.76 50.2354 9.988 50.2354 10.252V11.44C50.8594 10.696 51.6994 10.096 52.7554 9.64C53.8354 9.16 54.9874 8.92 56.2114 8.92C58.1794 8.92 59.8354 9.616 61.1794 11.008C62.5234 12.376 63.1954 14.404 63.1954 17.092ZM66.0608 20.044V17.2C66.0608 14.512 66.7808 12.46 68.2208 11.044C69.6608 9.628 71.4128 8.92 73.4768 8.92C75.5648 8.92 77.2328 9.484 78.4808 10.612V3.412C78.4808 3.148 78.5768 2.92 78.7688 2.728C78.9608 2.536 79.1888 2.44 79.4528 2.44H86.1128C86.3768 2.44 86.6048 2.536 86.7968 2.728C86.9888 2.92 87.0848 3.148 87.0848 3.412V27.028C87.0848 27.292 86.9888 27.52 86.7968 27.712C86.6048 27.904 86.3768 28 86.1128 28H79.9928C79.7288 28 79.5008 27.904 79.3088 27.712C79.1168 27.52 79.0208 27.292 79.0208 27.028V25.948C77.7728 27.556 76.0088 28.36 73.7288 28.36C71.4488 28.36 69.6008 27.688 68.1848 26.344C66.7688 24.976 66.0608 22.876 66.0608 20.044ZM78.4808 19.828V17.164C78.4088 15.964 77.8088 15.364 76.6808 15.364C75.4808 15.364 74.8808 16.06 74.8808 17.452V19.828C74.8808 21.22 75.4808 21.916 76.6808 21.916C77.8808 21.916 78.4808 21.22 78.4808 19.828Z" fill="white"/>
</g>
<path d="M5 0.5H89C91.4853 0.5 93.5 2.51472 93.5 5V28C93.5 30.4853 91.4853 32.5 89 32.5H5C2.51472 32.5 0.5 30.4853 0.5 28V5C0.5 2.51472 2.51472 0.5 5 0.5Z" stroke="white" stroke-opacity="0.1"/>
<defs>
<clipPath id="clip0_5723_89">
<path d="M0 5C0 2.23858 2.23858 0 5 0H89C91.7614 0 94 2.23858 94 5V28C94 30.7614 91.7614 33 89 33H5C2.23858 33 0 30.7614 0 28V5Z" fill="white"/>
</clipPath>
</defs>
</svg>
