<svg id="noun-home-1296847" xmlns="http://www.w3.org/2000/svg" width="39.677" height="36.341" viewBox="0 0 39.677 36.341">
  <path id="Path_58" data-name="Path 58" d="M164.047,309.069H153.416a.832.832,0,0,1-.831-.831v-8.481h-6.127v8.481a.832.832,0,0,1-.831.831H134.943a.832.832,0,0,1-.831-.831V292.565a.831.831,0,1,1,1.663,0v14.841H144.8v-8.481a.832.832,0,0,1,.831-.831h7.79a.832.832,0,0,1,.831.831v8.481h8.969V292.565a.831.831,0,1,1,1.663,0v15.672a.835.835,0,0,1-.833.831Z" transform="translate(-129.657 -272.728)" fill="#ff8a23"/>
  <path id="Path_59" data-name="Path 59" d="M300.553,156.683h-6.42a.832.832,0,0,1-.831-.831v-6.345a.832.832,0,0,1,.831-.831h6.42a.832.832,0,0,1,.831.831v6.343A.832.832,0,0,1,300.553,156.683Zm-5.59-1.663h4.757v-4.682h-4.757Z" transform="translate(-277.504 -139.863)" fill="#ff8a23"/>
  <path id="Path_60" data-name="Path 60" d="M110.444,45.68H72.429a.832.832,0,0,1-.589-1.42L90.848,25.254a.832.832,0,0,1,1.175,0l6.064,6.062V28.84a.832.832,0,0,1,.831-.831h5.126a.832.832,0,0,1,.831.831V38.1l6.155,6.155a.833.833,0,0,1-.587,1.42ZM74.435,44.017h34l-4.98-4.98a.831.831,0,0,1-.243-.589V29.671H99.749v3.651a.832.832,0,0,1-1.42.589l-6.894-6.9Z" transform="translate(-71.598 -25.011)" fill="#ff8a23"/>
  <path id="Path_61" data-name="Path 61" d="M441.6,129.082a.836.836,0,0,1-.589-.243l-7.008-7.008a.831.831,0,1,1,1.175-1.175l7.008,7.008a.83.83,0,0,1-.587,1.418Z" transform="translate(-407.956 -113.615)" fill="#ff8a23"/>
</svg>
