<svg xmlns="http://www.w3.org/2000/svg" width="27.18" height="22.063" viewBox="0 0 27.18 22.063">
  <g id="noun-photos-1123187" transform="translate(0.25 0.25)">
    <path id="Path_16" data-name="Path 16" d="M27.4,13.125H8.03A3.659,3.659,0,0,0,4.375,16.78V31.033A3.659,3.659,0,0,0,8.03,34.688H27.4a3.659,3.659,0,0,0,3.655-3.655V16.78A3.659,3.659,0,0,0,27.4,13.125Zm2.193,17.908A2.2,2.2,0,0,1,27.4,33.226H8.03a2.2,2.2,0,0,1-2.193-2.193V25.289l7.729-5.953,5.8,7.409a.732.732,0,0,0,1.03.121l4.354-3.461,4.84,6.269v1.359Zm0-3.751-4.136-5.358a.731.731,0,0,0-1.033-.126l-4.358,3.464-5.8-7.4a.731.731,0,0,0-1.021-.128L5.837,23.444V16.78A2.2,2.2,0,0,1,8.03,14.587H27.4a2.2,2.2,0,0,1,2.193,2.193Zm-8.783-10.3a2.022,2.022,0,1,0,2.022,2.022A2.025,2.025,0,0,0,20.809,16.987Zm0,2.583a.56.56,0,1,1,.56-.56A.561.561,0,0,1,20.809,19.57Z" transform="translate(-4.375 -13.125)" fill="#c6c7c7" stroke="#c5c7c6" stroke-width="0.5"/>
  </g>
</svg>
