<svg width="178" height="44" viewBox="0 0 178 44" fill="none" xmlns="http://www.w3.org/2000/svg">
<g clip-path="url(#clip0_5723_92)">
<path d="M5.44 7.56C7.89333 5.58667 11.1333 4.6 15.16 4.6C19.1867 4.6 22.4133 5.6 24.84 7.6C27.2933 9.57333 28.52 12.36 28.52 15.96V22.2C28.52 25.8533 27.3067 28.64 24.88 30.56C22.48 32.4533 19.24 33.4 15.16 33.4C11.08 33.4 7.82667 32.4533 5.4 30.56C3 28.64 1.8 25.8533 1.8 22.2V15.96C1.8 12.3333 3.01333 9.53333 5.44 7.56ZM13 24.8C13.5333 25.3333 14.2533 25.6 15.16 25.6C16.0667 25.6 16.7867 25.3333 17.32 24.8C17.8533 24.2667 18.12 23.4533 18.12 22.36V15.64C18.12 14.5733 17.8533 13.7733 17.32 13.24C16.7867 12.68 16.0667 12.4 15.16 12.4C14.2533 12.4 13.5333 12.68 13 13.24C12.4667 13.7733 12.2 14.5733 12.2 15.64V22.36C12.2 23.4533 12.4667 24.2667 13 24.8ZM41.0725 13.28V14.68C42.9392 13.0267 45.0192 12.2 47.3125 12.2H49.2325C49.5258 12.2 49.7792 12.3067 49.9925 12.52C50.2058 12.7333 50.3125 12.9867 50.3125 13.28V19.52C50.3125 19.8133 50.2058 20.0667 49.9925 20.28C49.7792 20.4933 49.5258 20.6 49.2325 20.6H44.0725C43.3525 20.6 42.7792 20.7733 42.3525 21.12C41.9525 21.44 41.7258 21.88 41.6725 22.44V31.92C41.6725 32.2133 41.5658 32.4667 41.3525 32.68C41.1392 32.8933 40.8858 33 40.5925 33H32.9925C32.6992 33 32.4458 32.8933 32.2325 32.68C32.0192 32.4667 31.9125 32.2133 31.9125 31.92V13.28C31.9125 12.9867 32.0192 12.7333 32.2325 12.52C32.4458 12.3067 32.6992 12.2 32.9925 12.2H39.9925C40.2858 12.2 40.5392 12.3067 40.7525 12.52C40.9658 12.7333 41.0725 12.9867 41.0725 13.28ZM53.3234 24.32V13.28C53.3234 12.9867 53.4301 12.7333 53.6434 12.52C53.8568 12.3067 54.1101 12.2 54.4034 12.2H62.0434C62.3368 12.2 62.5901 12.3067 62.8034 12.52C63.0168 12.7333 63.1234 12.9867 63.1234 13.28V24.04C63.1234 25.5067 63.7901 26.24 65.1234 26.24C66.4568 26.24 67.1234 25.5067 67.1234 24.04V13.28C67.1234 12.9867 67.2301 12.7333 67.4434 12.52C67.6568 12.3067 67.9101 12.2 68.2034 12.2H75.8034C76.0968 12.2 76.3501 12.3067 76.5634 12.52C76.7768 12.7333 76.8834 12.9867 76.8834 13.28V31.92C76.8834 32.2133 76.7768 32.4667 76.5634 32.68C76.3501 32.8933 76.0968 33 75.8034 33H68.8034C68.5101 33 68.2568 32.8933 68.0434 32.68C67.8301 32.4667 67.7234 32.2133 67.7234 31.92V30.6C66.4701 32.4667 64.2568 33.4 61.0834 33.4C58.8968 33.4 57.0568 32.64 55.5634 31.12C54.0701 29.5733 53.3234 27.3067 53.3234 24.32Z" fill="#228B22"/>
<g clip-path="url(#clip1_5723_92)">
<path d="M80 7C80 4.23858 82.2386 2 85 2H169C171.761 2 174 4.23858 174 7V30C174 32.7614 171.761 35 169 35H85C82.2386 35 80 32.7614 80 30V7Z" fill="#228B22"/>
<path d="M94.216 30H87.772C87.508 30 87.28 29.904 87.088 29.712C86.896 29.52 86.8 29.292 86.8 29.028V5.412C86.8 5.148 86.896 4.92 87.088 4.728C87.28 4.536 87.508 4.44 87.772 4.44H94.216C94.48 4.44 94.708 4.536 94.9 4.728C95.092 4.92 95.188 5.148 95.188 5.412V29.028C95.188 29.292 95.092 29.52 94.9 29.712C94.708 29.904 94.48 30 94.216 30ZM98.2483 24.636C98.2483 21.396 100.876 19.32 106.132 18.408L109.948 17.796C109.948 17.076 109.888 16.596 109.768 16.356C109.648 16.092 109.36 15.96 108.904 15.96C108.472 15.96 108.04 16.152 107.608 16.536C107.176 16.92 106.768 17.112 106.384 17.112H100.264C99.7363 17.112 99.4723 16.86 99.4723 16.356C99.4723 15.828 99.6523 15.276 100.012 14.7C100.396 14.1 100.936 13.512 101.632 12.936C102.352 12.36 103.348 11.88 104.62 11.496C105.916 11.112 107.356 10.92 108.94 10.92C112.156 10.92 114.568 11.592 116.176 12.936C117.784 14.28 118.588 16.2 118.588 18.696V29.028C118.588 29.292 118.492 29.52 118.3 29.712C118.108 29.904 117.88 30 117.616 30H111.316C111.052 30 110.824 29.904 110.632 29.712C110.44 29.52 110.344 29.292 110.344 29.028V28.02C109.216 29.58 107.572 30.36 105.412 30.36C103.252 30.36 101.512 29.82 100.192 28.74C98.8963 27.636 98.2483 26.268 98.2483 24.636ZM107.716 25.032C109.276 25.032 110.056 24.096 110.056 22.224L107.932 22.692C106.876 22.932 106.348 23.376 106.348 24.024C106.348 24.312 106.468 24.552 106.708 24.744C106.948 24.936 107.284 25.032 107.716 25.032ZM143.195 19.092V29.028C143.195 29.292 143.099 29.52 142.907 29.712C142.715 29.904 142.487 30 142.223 30H135.347C135.083 30 134.855 29.904 134.663 29.712C134.471 29.52 134.375 29.292 134.375 29.028V19.344C134.375 18.024 133.775 17.364 132.575 17.364C131.375 17.364 130.775 18.024 130.775 19.344V29.028C130.775 29.292 130.679 29.52 130.487 29.712C130.295 29.904 130.067 30 129.803 30H122.963C122.699 30 122.471 29.904 122.279 29.712C122.087 29.52 121.991 29.292 121.991 29.028V12.252C121.991 11.988 122.087 11.76 122.279 11.568C122.471 11.376 122.699 11.28 122.963 11.28H129.263C129.527 11.28 129.755 11.376 129.947 11.568C130.139 11.76 130.235 11.988 130.235 12.252V13.44C130.859 12.696 131.699 12.096 132.755 11.64C133.835 11.16 134.987 10.92 136.211 10.92C138.179 10.92 139.835 11.616 141.179 13.008C142.523 14.376 143.195 16.404 143.195 19.092ZM146.061 22.044V19.2C146.061 16.512 146.781 14.46 148.221 13.044C149.661 11.628 151.413 10.92 153.477 10.92C155.565 10.92 157.233 11.484 158.481 12.612V5.412C158.481 5.148 158.577 4.92 158.769 4.728C158.961 4.536 159.189 4.44 159.453 4.44H166.113C166.377 4.44 166.605 4.536 166.797 4.728C166.989 4.92 167.085 5.148 167.085 5.412V29.028C167.085 29.292 166.989 29.52 166.797 29.712C166.605 29.904 166.377 30 166.113 30H159.993C159.729 30 159.501 29.904 159.309 29.712C159.117 29.52 159.021 29.292 159.021 29.028V27.948C157.773 29.556 156.009 30.36 153.729 30.36C151.449 30.36 149.601 29.688 148.185 28.344C146.769 26.976 146.061 24.876 146.061 22.044ZM158.481 21.828V19.164C158.409 17.964 157.809 17.364 156.681 17.364C155.481 17.364 154.881 18.06 154.881 19.452V21.828C154.881 23.22 155.481 23.916 156.681 23.916C157.881 23.916 158.481 23.22 158.481 21.828Z" fill="white"/>
</g>
<path d="M85 2.5H169C171.485 2.5 173.5 4.51472 173.5 7V30C173.5 32.4853 171.485 34.5 169 34.5H85C82.5147 34.5 80.5 32.4853 80.5 30V7C80.5 4.51472 82.5147 2.5 85 2.5Z" stroke="white" stroke-opacity="0.1"/>
</g>
<rect x="0.5" y="0.5" width="177" height="43" rx="1.5" stroke="white" stroke-opacity="0.1"/>
<defs>
<clipPath id="clip0_5723_92">
<rect width="178" height="44" rx="2" fill="white"/>
</clipPath>
<clipPath id="clip1_5723_92">
<path d="M80 7C80 4.23858 82.2386 2 85 2H169C171.761 2 174 4.23858 174 7V30C174 32.7614 171.761 35 169 35H85C82.2386 35 80 32.7614 80 30V7Z" fill="white"/>
</clipPath>
</defs>
</svg>
