<svg id="noun-piggy-bank-5279677" xmlns="http://www.w3.org/2000/svg" width="47.989" height="36.341" viewBox="0 0 47.989 36.341">
  <path id="Path_62" data-name="Path 62" d="M103.667,95.764a.651.651,0,1,1,1.231-.427,13.721,13.721,0,0,1,.707,2.83,5.921,5.921,0,0,1-.1,2.193v1.379c0,.571.512.952,1.167,1.134a3.784,3.784,0,0,0,1.928,0c.655-.182,1.167-.563,1.167-1.134V98.67h0a.652.652,0,0,1,.234-.5c3.3-2.748,5.316-5.477,6.184-8.015a8.128,8.128,0,0,0,.384-4.075,7.48,7.48,0,0,0-1.681-3.521,13.674,13.674,0,0,0-5.629-3.755,10.546,10.546,0,0,1-.313,2.34h3.09a.653.653,0,0,1,.653.653v5.055a.653.653,0,0,1-.653.653H85.014a.655.655,0,0,1-.653-.653V81.8a.655.655,0,0,1,.653-.653h3.377a10.654,10.654,0,0,1-.313-2.569,10.279,10.279,0,0,1,.052-1.05l-.062.009c-.362.052-.661.1-.9.136a.66.66,0,0,1-.427-.06,8.133,8.133,0,0,1-1.934-1.869,11.579,11.579,0,0,0-2-2.011,9.819,9.819,0,0,0-.3,1.157,10.986,10.986,0,0,0-.2,2,.651.651,0,0,1-1.018.575l-2.245-1.542a5.068,5.068,0,0,0,.365,1.5,9.835,9.835,0,0,1,.5,1.7l0,0a.642.642,0,0,1,.013.123.651.651,0,0,1-.653.653c-.011,0-.337.519-.824,1.241a16.192,16.192,0,0,1-3.448,3.975,11.19,11.19,0,0,1-3.234,1.281l-.258.074A4.007,4.007,0,0,0,71.313,88a11.1,11.1,0,0,0,.2,2.06,4.493,4.493,0,0,0,.332,1.118c1.695-.177,4.664,1.379,7.493,2.862a41.371,41.371,0,0,0,4.318,2.081.659.659,0,0,1,.421.522,21.743,21.743,0,0,1,.212,2.3c.03.767.019,1.6-.025,2.737a1.218,1.218,0,0,0,.965,1.181,3.185,3.185,0,0,0,.961.153,3.623,3.623,0,0,0,1-.134c.669-.193,1.2-.587,1.2-1.143V99.6c-.022-.509-.022-1.047.006-1.567a9.705,9.705,0,0,1,.166-1.373.65.65,0,1,1,1.276.253,8.925,8.925,0,0,0-.139,1.192c-.019.335-.024.678-.019,1.012a28.318,28.318,0,0,0,7.79,1.407,19.306,19.306,0,0,0,6.826-.743,5.031,5.031,0,0,0,.008-1.464,12.462,12.462,0,0,0-.64-2.555ZM79.826,84.113a.651.651,0,0,1-1.18.549,1.678,1.678,0,0,1-.155-.756,1.661,1.661,0,0,1,.731-1.314,1.675,1.675,0,0,1,.729-.27.653.653,0,1,1,.147,1.3.348.348,0,0,0-.272.493Zm16.308-4.108a.65.65,0,1,1,1.295-.123.76.76,0,0,0,.34.512,1.647,1.647,0,0,0,1.842-.024.717.717,0,0,0,.3-.541c0-.6-.681-.724-1.363-.849-1.216-.228-2.429-.457-2.429-2.133a2.244,2.244,0,0,1,1.885-2.07v-.411a.653.653,0,0,1,.653-.653h.022v0H98.7a.648.648,0,0,1,.633.667l-.008.392a2.753,2.753,0,0,1,1.093.506,1.989,1.989,0,0,1,.805,1.567.654.654,0,0,1-1.308,0,.719.719,0,0,0-.3-.541,1.527,1.527,0,0,0-.939-.294c-.685,0-1.243.372-1.243.835,0,.6.683.724,1.363.849,1.216.228,2.432.457,2.432,2.133a1.989,1.989,0,0,1-.805,1.567,2.763,2.763,0,0,1-1.093.506l-.008.319v.09a.654.654,0,0,1-1.308,0V81.9A2.734,2.734,0,0,1,97,81.452a2.05,2.05,0,0,1-.868-1.447Zm-5.623,4.9h-3.2a.654.654,0,0,1,0-1.308h2.03a10.71,10.71,0,0,1-.534-1.148H85.67v3.743h25.722V82.452h-2.856l-.011.027-.006.016-.011.027-.006.016-.008.013v.006l-.006.009-.011.03,0,.008,0,.006-.006.016-.008.013,0,.011c-.1.242-.212.479-.329.71-.04.082-.082.16-.125.239h1.747a.654.654,0,0,1,0,1.308h-2.775a.646.646,0,0,1-.071-.006.481.481,0,0,1-.068.006H90.51Zm-.642-3.36a.729.729,0,0,1,.027.074,9.25,9.25,0,0,0,.963,1.978H93.11a7.6,7.6,0,0,1-1.086-1.526A7.549,7.549,0,1,1,104.232,83.6h2.256a8.621,8.621,0,0,0,.473-.825,9.42,9.42,0,0,0,.454-1.053l.008-.019.006-.016v0l.009-.019,0-.011,0-.008.006-.019.008-.019.006-.022c.027-.074.052-.153.076-.228a9.289,9.289,0,1,0-17.735,0c.025.065.043.128.065.19Zm5.2,2.051h7.2a6.283,6.283,0,0,0,1.9-2.144,6.239,6.239,0,1,0-9.1,2.144Zm19.635-5.95a.65.65,0,1,1,.438-1.225,2.458,2.458,0,0,1,1.627,2.171,2.468,2.468,0,0,1-.849,2.011.651.651,0,1,1-.851-.985,1.169,1.169,0,0,0,.4-.949,1.15,1.15,0,0,0-.228-.626,1.177,1.177,0,0,0-.537-.4ZM88.35,76.175A10.6,10.6,0,0,1,109.2,77.386a15.337,15.337,0,0,1,6.693,4.339,8.788,8.788,0,0,1,1.967,4.13,9.413,9.413,0,0,1-.433,4.717c-.922,2.693-3,5.553-6.353,8.4v2.767a2.541,2.541,0,0,1-2.125,2.392,5.045,5.045,0,0,1-2.625,0,2.541,2.541,0,0,1-2.125-2.392v-.555a21.757,21.757,0,0,1-6.788.645A30.3,30.3,0,0,1,89.7,100.5v1.241a2.594,2.594,0,0,1-2.152,2.4,4.863,4.863,0,0,1-1.371.182,4.422,4.422,0,0,1-1.363-.221,2.427,2.427,0,0,1-1.853-2.462c.04-1.1.052-1.913.024-2.644-.022-.6-.074-1.154-.153-1.782-1.176-.476-2.62-1.232-4.1-2.008-2.8-1.47-5.746-3.017-6.87-2.7a.657.657,0,0,1-.177.025.993.993,0,0,1-.789-.419,4.427,4.427,0,0,1-.669-1.793A12.448,12.448,0,0,1,70,88a3.577,3.577,0,0,1,.734-2.62.617.617,0,0,1,.234-.12c.147-.046.283-.084.433-.125a10.589,10.589,0,0,0,2.8-1.063,15.017,15.017,0,0,0,3.156-3.67,7.908,7.908,0,0,1,1.167-1.493,9.019,9.019,0,0,0-.335-1.042,7.484,7.484,0,0,1-.506-3.227.653.653,0,0,1,1.056-.514l2.326,1.6c.038-.368.09-.732.16-1.088a9.568,9.568,0,0,1,.626-2.043.652.652,0,0,1,.767-.368c1.14.278,2.212,1.532,3.181,2.663a10.687,10.687,0,0,0,1.382,1.456c.274-.043.509-.079.7-.106.133-.02.291-.042.47-.066Z" transform="translate(-70.004 -67.978)" fill="#ff8a23"/>
</svg>
