<svg id="noun-videos-3025410" xmlns="http://www.w3.org/2000/svg" width="26.68" height="21.369" viewBox="0 0 26.68 21.369">
  <g id="Group_1735" data-name="Group 1735" transform="translate(0 0)">
    <path id="Path_17" data-name="Path 17" d="M114.356,288.369H92.323A2.327,2.327,0,0,1,90,286.046V269.323A2.327,2.327,0,0,1,92.323,267h22.033a2.327,2.327,0,0,1,2.323,2.323v16.722A2.327,2.327,0,0,1,114.356,288.369ZM92.323,268.9a.429.429,0,0,0-.427.427v16.722a.429.429,0,0,0,.427.427h22.033a.429.429,0,0,0,.427-.427V269.323a.429.429,0,0,0-.427-.427Z" transform="translate(-90 -267)" fill="#c5c7c6"/>
    <path id="Path_20" data-name="Path 20" d="M368.661,439.382a1.259,1.259,0,0,1-1.261-1.261v-9.082a1.264,1.264,0,0,1,1.931-1.072l0,0,7.248,4.539a1.264,1.264,0,0,1,0,2.14l-7.248,4.539A1.26,1.26,0,0,1,368.661,439.382Zm.635-9.2v6.793l5.421-3.4Z" transform="translate(-358.631 -422.694)" fill="#c5c7c6"/>
  </g>
</svg>
